<?xml version="1.0" encoding="utf-8"?>
<!-- Generator: Adobe Illustrator 24.1.1, SVG Export Plug-In . SVG Version: 6.00 Build 0)  -->
<svg version="1.1" id="Laag_1" xmlns="http://www.w3.org/2000/svg" xmlns:xlink="http://www.w3.org/1999/xlink" x="0px" y="0px"
	 viewBox="0 0 235.8 52.3" style="enable-background:new 0 0 235.8 52.3;" xml:space="preserve">
<style type="text/css">
	.st0{fill:#FFFFFF;}
</style>
<title>Group</title>
<desc>Created with Sketch.</desc>
<path id="Shape_2_" class="st0" d="M13.7,45.4c-1-1.3-2.2-3.2-3.4-5.5c0-0.1-0.1-0.2-0.1-0.3c0,0,0,0,0,0l0,0
	c-0.4-0.7-0.5-1-0.8-1.6c-0.2-0.5-0.3-0.6-0.7-1.8c-0.1-0.3-0.2-0.6-0.3-0.9c-0.1-0.2-0.1-0.5-0.2-0.8c-0.2-0.6-0.4-1.3-0.5-2
	c0-0.1-0.1-0.3-0.1-0.5c-0.1-0.5-0.2-1-0.3-1.5c0-0.1,0-0.2,0-0.4C7,30,7,29.8,7,29.6c0-0.2-0.1-0.4-0.1-0.6c0,0,0-0.1,0-0.2
	c0-0.1,0-0.3,0-0.5c0-0.2,0-0.4-0.1-0.6v0c0-0.2,0-0.4-0.1-0.5V27c0-0.2,0-0.4,0-0.6c0-0.5-0.1-1-0.1-1.5c0-0.1-0.1-1.5-0.1-1.6
	v-0.9c0-0.7,0-1.3,0-1.6v-0.3v0.2v0v0.1v0c0,0,0.1,0.3,0.1,0.3c0,0,0,0.1,0.1,0.2l0,0c0,0,0.2,0.3,0.2,0.3c0,0,0.1,0.1,0.1,0.2l0,0
	c0,0,0.3,0.3,0.3,0.3l0.2,0.2c0,0,0.2,0.1,0.2,0.2C7.8,22.7,8.1,23,8.1,23c0,0,0.2,0.1,0.3,0.1c2.9,1.6,8.4,2.7,14.7,2.8
	c7.2,0,13.4-1.3,16-3.2l0,0c0.2-0.1,0.4-0.3,0.5-0.5l0,0c0,0,0.1-0.1,0.1-0.1l0,0c0.1-0.1,0.2-0.2,0.3-0.3c0,0,0,0,0,0
	c0,0,0-0.1,0.1-0.1c0,0,0,0,0,0c0,0,0-0.1,0.1-0.1v0c0,0,0-0.1,0-0.1c0,0,0,0,0,0c0,0,0-0.1,0-0.1v0c0,0,0-0.1,0-0.1v0v-0.2
	c0,0.1,0.1,1.6,0,3.9v0.3v0.1v0.2c-0.7,0.2-1.3,0.5-1.5,0.5l-1.1,1.7c0.2-0.1,1.2-0.4,2.4-0.7c0.1,0,0.2,0,0.3,0h0c0,0,0.1,0,0.2,0
	h0.1c0,0,0.5-0.1,0.6-0.1c0,0,0.2,0,0.3,0s0.2,0,0.3,0c0,0,0.1,0,0.2,0c0,0,0.2,0,0.3,0c0,0,0.2,0,0.3,0c0,0,0.2,0,0.3,0h0.3h0.9
	h0.1c0,0,0.5,0,0.6,0c0.7,0,1.3,0.2,1.8,0.5c0.9,0.5,1.5,1.2,1.8,2.1c0,0.1,0,0.2,0.1,0.4c0,0,0,0.1,0,0.1c0,0.1,0,0.1,0,0.2
	c0,0,0,0.1,0,0.1c0,0.1,0,0.1,0,0.2V30v0.2v0.2v0.2v0.2v0.2v0.2v0.2v0.2c-0.1,1.2-0.5,2.4-1.1,3.5c-1.1,2-2.8,3.4-4.6,4
	c-2,0.6-5.3,1.7-7.4,2.4c-0.1,0.1-0.2,0.3-0.3,0.5c-0.2,0.3-0.8,1.4-1.6,2.5c-0.3,0.5-0.5,0.7-0.7,1l0,0c0,0-0.1,0.1-0.1,0.2l0,0
	c0,0,0,0-0.1,0.1c-0.2,0.3-0.4,0.5-0.5,0.6c0,0-0.1,0.1-0.2,0.2c0,0,0,0-0.1,0.1l0,0l0,0c0,0,0,0,0,0.1c-1,1.2-4.4,2.1-8.5,2.1h-0.4
	c-4.2,0-7.6-0.9-8.6-2.1C14.4,46.3,14,45.8,13.7,45.4z M34.5,39.4c0,0,1.2-0.4,2.8-0.9c0.7-0.2,1.5-0.5,2.2-0.7h0
	c0.1,0,0.2,0,0.3-0.1l0,0c0.1,0,0.2,0,0.3-0.1h0c0.1,0,0.2,0,0.3-0.1c0,0,0,0,0.1,0c0.1,0,0.2,0,0.3-0.1l0,0c0.1,0,0.2,0,0.3-0.1h0
	c0.1,0,0.2,0,0.3-0.1h0c0.1,0,0.2,0,0.3-0.1H42c0.2,0,0.4-0.1,0.6-0.2c1.3-0.4,2.5-1.5,3.3-2.9c0-0.1,0.1-0.2,0.1-0.3c0,0,0,0,0-0.1
	c0-0.1,0-0.1,0.1-0.2c0,0,0-0.1,0-0.1c0,0,0-0.1,0.1-0.2c0,0,0-0.1,0-0.1c0,0,0-0.1,0-0.2s0-0.1,0-0.1c0,0,0-0.1,0-0.2
	c0,0,0-0.1,0-0.1s0-0.1,0-0.2s0-0.1,0-0.1c0-0.1,0-0.1,0-0.2v-0.1c0-0.1,0-0.2,0-0.3v0l0,0l0,0c0-0.5,0-0.6,0-0.8
	c0-0.4-0.1-0.8-0.2-1.2c-0.1-0.3-0.3-0.5-0.5-0.6c-0.3-0.1-0.6-0.2-1-0.3c-1.2-0.1-3.1,0.2-4.8,0.7c0,0.1,0,0.2,0,0.3s0,0.1,0,0.2
	c0,0.3-0.1,0.7-0.2,1c-0.1,0.7-0.3,1.5-0.5,2.1l0,0c-0.1,0.4-0.2,0.8-0.3,1.1c-0.1,0.3-0.2,0.7-0.3,1.1c-0.1,0.5-0.3,0.8-0.3,1
	c0,0.1-0.1,0.3-0.2,0.5c0,0.1-0.1,0.3-0.1,0.4c-1.1,0.5-1.8,0.8-1.9,0.8L34.5,39.4z M8.5,20.7c0,2.6,6.7,4.2,14.9,4.2
	s14.9-1.6,14.9-4.2c0-2.6-6.7-4.7-14.9-4.7S8.5,18.1,8.5,20.7z M6.4,5.2c3.3-1.9,10.4-2.9,16.8-2.9s13.5,1,16.8,2.9
	c5.4,3.1-0.3,7.5-16.8,7.5C6.7,12.7,1.1,8.3,6.4,5.2z M23.2,11.5c13.9,0,19.4-3.6,15.2-6.3c-2.7-1.7-9.2-2.5-15.2-2.5
	S10.7,3.4,8,5.2C3.8,7.9,9.4,11.5,23.2,11.5z"/>
<g>
	<path class="st0" d="M72.8,40.7V29.6h-4v11.1h-3.3V16.2h3.3v10.4h4V16.2h3.3v24.4H72.8z"/>
	<path class="st0" d="M79.1,40.7V16.2h8.1v3h-4.8v7.4h4.3v3h-4.3v8.1h4.8v3H79.1z"/>
	<path class="st0" d="M89.6,40.7V16.2h3.3v24.4H89.6z"/>
	<path class="st0" d="M103.6,40.7h-7.8V16.2h3.3v21.5h4.5V40.7z"/>
	<path class="st0" d="M105.5,40.7V16.2h3.3v24.4H105.5z"/>
	<path class="st0" d="M116.9,31.7v-3h5v11.9h-6.4c-2.5,0-3.8-1.4-3.8-4.1V20.4c0-2.8,1.3-4.2,3.8-4.2h2.2c2.8,0,4.1,1.4,4.1,4.3v2.7
		h-3.3V21c0-1.2-0.5-1.8-1.4-1.8h-0.8c-1,0-1.4,0.6-1.4,1.8v15c0,1.2,0.5,1.8,1.4,1.8h2.2v-6H116.9z"/>
	<path class="st0" d="M124.5,40.7V16.2h8.1v3h-4.8v7.4h4.3v3h-4.3v8.1h4.8v3H124.5z"/>
	<path class="st0" d="M147.9,28.1c1.8,0.5,2.7,1.4,2.7,2.8V37c0,2.4-1.2,3.6-3.7,3.6h-6.6V16.2h5.6c2.9,0,4.4,1.5,4.4,4.4v4.7
		c0,1.4-0.8,2.3-2.3,2.6V28.1z M143.6,26.6h1.5c1.2,0,1.9-0.6,1.9-1.8V21c0-1.2-0.5-1.8-1.5-1.8h-1.9V26.6z M143.6,37.7h2.4
		c0.9,0,1.3-0.4,1.3-1.1v-5.4c0-1.2-0.6-1.7-1.9-1.7h-1.8V37.7z"/>
	<path class="st0" d="M157.1,40.7c-2.6,0-3.9-1.4-3.9-4.1V20.4c0-2.8,1.3-4.2,3.9-4.2h3.1c2.6,0,3.9,1.4,3.9,4.2v16.1
		c0,2.8-1.3,4.1-3.9,4.1H157.1z M157.9,37.7h1.7c0.9,0,1.3-0.5,1.3-1.4V20.6c0-1-0.5-1.4-1.5-1.4h-1.5c-1,0-1.4,0.5-1.4,1.4v15.6
		C156.4,37.2,156.9,37.7,157.9,37.7z"/>
	<path class="st0" d="M170.8,40.7c-2.6,0-3.9-1.4-3.9-4.1V20.4c0-2.8,1.3-4.2,3.9-4.2h3.1c2.6,0,3.9,1.4,3.9,4.2v16.1
		c0,2.8-1.3,4.1-3.9,4.1H170.8z M171.6,37.7h1.7c0.9,0,1.3-0.5,1.3-1.4V20.6c0-1-0.5-1.4-1.5-1.4h-1.5c-1,0-1.4,0.5-1.4,1.4v15.6
		C170.1,37.2,170.6,37.7,171.6,37.7z"/>
	<path class="st0" d="M187.5,28V16.2h3.3v24.4h-3.3v-4.9L184,24.7v16h-3.3V16.2h3.3L187.5,28z"/>
	<path class="st0" d="M199,19.2v21.5h-3.3V19.2h-3.1v-3h9.5v3H199z"/>
	<path class="st0" d="M202.8,37.7h2.1c1,0,1.5-0.6,1.5-1.8V16.2h3.3v20.3c0,2.7-1.3,4.1-3.8,4.1h-3.1V37.7z"/>
	<path class="st0" d="M212.7,40.7V16.2h8.1v3H216v7.4h4.3v3H216v8.1h4.8v3H212.7z"/>
	<path class="st0" d="M229.4,22.8v-2.1c0-1-0.5-1.5-1.4-1.5h-0.5c-0.9,0-1.4,0.5-1.4,1.5v4c0,0.5,0.1,0.8,0.3,0.9s0.5,0.4,0.9,0.6
		l3.1,1.7c0.7,0.4,1.2,0.7,1.4,0.9c0.3,0.2,0.5,0.5,0.7,0.8c0.2,0.3,0.2,0.9,0.2,1.8v5.2c0,2.7-1.3,4.1-3.9,4.1h-2
		c-2.6,0-3.9-1.5-3.9-4.5v-1.2h3.3v1.3c0,1,0.5,1.4,1.5,1.4h0.6c0.9,0,1.3-0.5,1.3-1.4v-4.1c0-0.5-0.1-0.8-0.3-0.9
		c-0.2-0.2-0.5-0.4-0.9-0.6l-3.1-1.7c-0.7-0.4-1.2-0.7-1.5-0.9c-0.3-0.2-0.5-0.6-0.7-1c-0.1-0.4-0.2-0.9-0.2-1.5v-5
		c0-2.8,1.3-4.2,3.9-4.2h2c2.6,0,3.9,1.4,3.9,4.2v2.4H229.4z"/>
</g>
</svg>
